<?xml version="1.0" standalone="no"?>
<!DOCTYPE svg PUBLIC "-//W3C//DTD SVG 20010904//EN"
 "http://www.w3.org/TR/2001/REC-SVG-20010904/DTD/svg10.dtd">
<svg version="1.0" xmlns="http://www.w3.org/2000/svg"
 width="542.000000pt" height="542.000000pt" viewBox="0 0 542.000000 542.000000"
 preserveAspectRatio="xMidYMid meet">
<metadata>
Created by potrace 1.11, written by Peter Selinger 2001-2013
</metadata>
<g transform="translate(0.000000,542.000000) scale(0.100000,-0.100000)"
fill="#000000" stroke="none">
<path d="M2966 4615 c-16 -8 -57 -41 -91 -73 -91 -85 -212 -125 -422 -138 -85
-6 -103 -10 -102 -23 0 -9 8 -61 17 -116 l18 -100 64 3 c70 2 183 20 324 51
50 11 92 18 95 16 5 -2 7 -2544 2 -2580 -1 -7 -63 -10 -173 -10 l-173 0 -2 70
c-2 39 -4 383 -6 765 -4 760 -2 740 -65 869 -52 107 -162 184 -312 218 -81 18
-403 25 -512 11 -226 -29 -477 -110 -700 -225 l-108 -56 0 -239 0 -238 125 0
125 0 0 154 0 155 81 45 c222 125 485 189 741 180 239 -9 340 -77 368 -250 12
-69 14 -463 3 -465 -5 -1 -39 -2 -78 -4 -193 -7 -373 -16 -400 -20 -17 -2 -82
-9 -145 -15 -231 -23 -505 -84 -653 -146 -287 -120 -429 -298 -440 -554 -14
-296 152 -512 455 -593 73 -19 107 -22 283 -21 173 1 218 4 336 27 161 32 314
78 501 152 75 30 139 55 142 55 3 0 6 -25 6 -55 l0 -55 301 0 302 0 -7 -42
c-8 -46 -48 -124 -103 -201 -20 -26 -34 -49 -32 -51 14 -9 200 -96 207 -96 21
0 117 191 146 292 l17 58 37 -24 c72 -45 203 -107 290 -136 128 -42 239 -59
367 -55 290 9 524 107 719 299 175 174 289 411 329 686 13 88 15 356 4 450 -3
19 -8 60 -12 90 -4 30 -20 105 -35 167 -104 413 -377 662 -790 720 -99 14
-338 8 -435 -11 -156 -30 -297 -79 -397 -138 l-48 -27 0 32 c0 17 -1 273 -3
567 -2 469 -4 539 -19 571 -29 65 -82 85 -142 54z m952 -1280 c288 -22 497
-167 595 -415 67 -170 92 -331 90 -585 -4 -471 -230 -806 -619 -917 -106 -30
-362 -33 -464 -5 -91 25 -253 108 -327 167 l-63 50 0 63 c-1 34 -1 365 -1 735
l-1 674 33 28 c122 103 348 192 529 207 36 3 66 6 67 7 3 3 33 1 161 -9z
m-1648 -1239 l0 -304 -137 -60 c-356 -156 -608 -218 -873 -215 -222 2 -356 67
-419 202 -32 71 -36 197 -8 278 56 162 293 280 672 338 22 3 51 7 65 10 97 15
299 34 440 41 63 4 116 7 117 8 1 1 34 3 72 4 l71 3 0 -305z"/>
</g>
</svg>
